0
SECTION
2
HEADER
9
$INSUNITS
70
4
0
ENDSEC
0
SECTION
2
TABLES
0
TABLE
2
LTYPE
0
LTYPE
72
65
70
0
2
CONTINUOUS
3
______
73
0
40
0
0
LTYPE
72
65
70
0
2
DASHED
3
_ _ _ 
73
2
40
7.5
49
5
49
-2.5
0
LTYPE
72
65
70
0
2
DOTTED
3
. . . 
73
2
40
1.5
49
0.5
49
-1
0
ENDTAB
0
TABLE
2
LAYER
0
ENDTAB
0
ENDSEC
0
SECTION
2
ENTITIES
0
POLYLINE
8
0
6
CONTINUOUS
66
1
70
1
0
VERTEX
8
0
10
-7
20
-6.5
42
0.4142136
0
VERTEX
8
0
10
-6.5
20
-7
0
VERTEX
8
0
10
6.5
20
-7
42
0.4142136
0
VERTEX
8
0
10
7
20
-6.5
0
VERTEX
8
0
10
7
20
6.5
42
0.4142136
0
VERTEX
8
0
10
6.5
20
7
0
VERTEX
8
0
10
-6.5
20
7
42
0.4142136
0
VERTEX
8
0
10
-7
20
6.5
0
SEQEND
0
POLYLINE
8
0
6
CONTINUOUS
66
1
70
1
0
VERTEX
8
0
10
12.05
20
-6.5
42
0.4142136
0
VERTEX
8
0
10
12.55
20
-7
0
VERTEX
8
0
10
25.55
20
-7
42
0.4142136
0
VERTEX
8
0
10
26.05
20
-6.5
0
VERTEX
8
0
10
26.05
20
6.5
42
0.4142136
0
VERTEX
8
0
10
25.55
20
7
0
VERTEX
8
0
10
12.55
20
7
42
0.4142136
0
VERTEX
8
0
10
12.05
20
6.5
0
SEQEND
0
POLYLINE
8
0
6
CONTINUOUS
66
1
70
1
0
VERTEX
8
0
10
-7
20
-25.55
42
0.4142136
0
VERTEX
8
0
10
-6.5
20
-26.05
0
VERTEX
8
0
10
6.5
20
-26.05
42
0.4142136
0
VERTEX
8
0
10
7
20
-25.55
0
VERTEX
8
0
10
7
20
-12.55
42
0.4142136
0
VERTEX
8
0
10
6.5
20
-12.05
0
VERTEX
8
0
10
-6.5
20
-12.05
42
0.4142136
0
VERTEX
8
0
10
-7
20
-12.55
0
SEQEND
0
POLYLINE
8
0
6
CONTINUOUS
66
1
70
1
0
VERTEX
8
0
10
12.05
20
-25.55
42
0.4142136
0
VERTEX
8
0
10
12.55
20
-26.05
0
VERTEX
8
0
10
25.55
20
-26.05
42
0.4142136
0
VERTEX
8
0
10
26.05
20
-25.55
0
VERTEX
8
0
10
26.05
20
-12.55
42
0.4142136
0
VERTEX
8
0
10
25.55
20
-12.05
0
VERTEX
8
0
10
12.55
20
-12.05
42
0.4142136
0
VERTEX
8
0
10
12.05
20
-12.55
0
SEQEND
0
POLYLINE
8
0
6
CONTINUOUS
66
1
70
1
0
VERTEX
8
0
10
-7
20
-44.6
42
0.4142136
0
VERTEX
8
0
10
-6.5
20
-45.1
0
VERTEX
8
0
10
6.5
20
-45.1
42
0.4142136
0
VERTEX
8
0
10
7
20
-44.6
0
VERTEX
8
0
10
7
20
-31.6
42
0.4142136
0
VERTEX
8
0
10
6.5
20
-31.1
0
VERTEX
8
0
10
-6.5
20
-31.1
42
0.4142136
0
VERTEX
8
0
10
-7
20
-31.6
0
SEQEND
0
POLYLINE
8
0
6
CONTINUOUS
66
1
70
1
0
VERTEX
8
0
10
12.05
20
-44.6
42
0.4142136
0
VERTEX
8
0
10
12.55
20
-45.1
0
VERTEX
8
0
10
25.55
20
-45.1
42
0.4142136
0
VERTEX
8
0
10
26.05
20
-44.6
0
VERTEX
8
0
10
26.05
20
-31.6
42
0.4142136
0
VERTEX
8
0
10
25.55
20
-31.1
0
VERTEX
8
0
10
12.55
20
-31.1
42
0.4142136
0
VERTEX
8
0
10
12.05
20
-31.6
0
SEQEND
0
POLYLINE
8
0
6
CONTINUOUS
66
1
70
1
0
VERTEX
8
0
10
-7
20
-63.65
42
0.4142136
0
VERTEX
8
0
10
-6.5
20
-64.15
0
VERTEX
8
0
10
6.5
20
-64.15
42
0.4142136
0
VERTEX
8
0
10
7
20
-63.65
0
VERTEX
8
0
10
7
20
-50.65
42
0.4142136
0
VERTEX
8
0
10
6.5
20
-50.15
0
VERTEX
8
0
10
-6.5
20
-50.15
42
0.4142136
0
VERTEX
8
0
10
-7
20
-50.65
0
SEQEND
0
POLYLINE
8
0
6
CONTINUOUS
66
1
70
1
0
VERTEX
8
0
10
12.05
20
-63.65
42
0.4142136
0
VERTEX
8
0
10
12.55
20
-64.15
0
VERTEX
8
0
10
25.55
20
-64.15
42
0.4142136
0
VERTEX
8
0
10
26.05
20
-63.65
0
VERTEX
8
0
10
26.05
20
-50.65
42
0.4142136
0
VERTEX
8
0
10
25.55
20
-50.15
0
VERTEX
8
0
10
12.55
20
-50.15
42
0.4142136
0
VERTEX
8
0
10
12.05
20
-50.65
0
SEQEND
0
POLYLINE
8
0
6
CONTINUOUS
66
1
70
1
0
VERTEX
8
0
10
-7
20
-82.7
42
0.4142136
0
VERTEX
8
0
10
-6.5
20
-83.2
0
VERTEX
8
0
10
6.5
20
-83.2
42
0.4142136
0
VERTEX
8
0
10
7
20
-82.7
0
VERTEX
8
0
10
7
20
-69.7
42
0.4142136
0
VERTEX
8
0
10
6.5
20
-69.2
0
VERTEX
8
0
10
-6.5
20
-69.2
42
0.4142136
0
VERTEX
8
0
10
-7
20
-69.7
0
SEQEND
0
POLYLINE
8
0
6
CONTINUOUS
66
1
70
1
0
VERTEX
8
0
10
12.05
20
-82.7
42
0.4142136
0
VERTEX
8
0
10
12.55
20
-83.2
0
VERTEX
8
0
10
25.55
20
-83.2
42
0.4142136
0
VERTEX
8
0
10
26.05
20
-82.7
0
VERTEX
8
0
10
26.05
20
-69.7
42
0.4142136
0
VERTEX
8
0
10
25.55
20
-69.2
0
VERTEX
8
0
10
12.55
20
-69.2
42
0.4142136
0
VERTEX
8
0
10
12.05
20
-69.7
0
SEQEND
0
POLYLINE
8
outline
6
CONTINUOUS
66
1
70
1
0
VERTEX
8
outline
10
-12
20
-87.2
42
0.4142136
0
VERTEX
8
outline
10
-11
20
-88.2
0
VERTEX
8
outline
10
30.05
20
-88.2
42
0.4142136
0
VERTEX
8
outline
10
31.05
20
-87.2
0
VERTEX
8
outline
10
31.05
20
11
42
0.4142136
0
VERTEX
8
outline
10
30.05
20
12
0
VERTEX
8
outline
10
-11
20
12
42
0.4142136
0
VERTEX
8
outline
10
-12
20
11
0
SEQEND
0
ENDSEC
0
EOF